<?xml version="1.0" encoding="UTF-8" standalone="no"?>
<svg xmlns="http://www.w3.org/2000/svg" version="1.1" width="1400" height="900" viewBox="0 0 1400 900">
  <defs>
    <style type="text/css"><![CDATA[
      .box { fill: #f7f7f9; stroke: #2e3a46; stroke-width: 2; rx: 10; ry: 10; }
      .title { font: 700 18px sans-serif; fill: #1f2a33; }
      .text { font: 400 14px sans-serif; fill: #1f2a33; }
      .label { font: 600 13px sans-serif; fill: #1f2a33; }
      .usb { stroke: #1f78d1; stroke-width: 4; fill: none; }
      .analog { stroke: #2e7d32; stroke-width: 4; fill: none; }
      .ultranet { stroke: #f57c00; stroke-width: 4; fill: none; }
    ]]></style>
    <marker id="arrowBlue" markerWidth="12" markerHeight="12" refX="10" refY="6" orient="auto">
      <path d="M0,0 L12,6 L0,12 z" fill="#1f78d1" />
    </marker>
    <marker id="arrowGreen" markerWidth="12" markerHeight="12" refX="10" refY="6" orient="auto">
      <path d="M0,0 L12,6 L0,12 z" fill="#2e7d32" />
    </marker>
    <marker id="arrowOrange" markerWidth="12" markerHeight="12" refX="10" refY="6" orient="auto">
      <path d="M0,0 L12,6 L0,12 z" fill="#f57c00" />
    </marker>
  </defs>

  <!-- Title -->
  <text x="700" y="50" text-anchor="middle" class="title">Live System Overview — Mac + XR18 + Ultranet P16‑M</text>

  <!-- Mac Laptop -->
  <rect x="60" y="120" width="240" height="120" class="box" />
  <text x="80" y="150" class="title">Mac Laptop</text>
  <text x="80" y="175" class="text">Ableton Live + Ableset</text>
  <text x="80" y="198" class="text">Logic Pro (prep)</text>

  <!-- XR18 -->
  <rect x="440" y="130" width="300" height="150" class="box" />
  <text x="460" y="160" class="title">Behringer X Air XR18</text>
  <text x="460" y="186" class="text">FOH mixer + USB interface</text>
  <text x="460" y="210" class="text">Ultranet (RJ45) out</text>

  <!-- FOH/PA -->
  <rect x="900" y="80" width="280" height="90" class="box" />
  <text x="920" y="110" class="title">FOH / PA</text>
  <text x="920" y="135" class="text">Main L/R from XR18</text>

  <!-- Ultranet Hub -->
  <rect x="900" y="280" width="300" height="100" class="box" />
  <text x="920" y="312" class="title">Ultranet Hub (P16‑D)</text>
  <text x="920" y="338" class="text">Power + distribution to P16‑M</text>

  <!-- P16-M units -->
  <rect x="960" y="420" width="240" height="54" class="box" />
  <text x="972" y="452" class="label">P16‑M Drummer</text>

  <rect x="960" y="486" width="240" height="54" class="box" />
  <text x="972" y="518" class="label">P16‑M Bassist</text>

  <rect x="960" y="552" width="240" height="54" class="box" />
  <text x="972" y="584" class="label">P16‑M Guitarist</text>

  <rect x="960" y="618" width="240" height="54" class="box" />
  <text x="972" y="650" class="label">P16‑M Lead Vox / BGV</text>

  <!-- Example IEM transmitter from P16-M Line Out -->
  <rect x="1220" y="420" width="130" height="54" class="box" />
  <text x="1232" y="452" class="label">IEM TX (example)</text>
  <polyline points="1200,447 1210,447 1220,447" class="analog" marker-end="url(#arrowGreen)" />
  <text x="1200" y="435" class="label" fill="#2e7d32">Line Out L/R</text>

  <!-- Analog sources block -->
  <rect x="60" y="340" width="280" height="140" class="box" />
  <text x="80" y="370" class="title">Live Inputs 1–12</text>
  <text x="80" y="396" class="text">Mics, DIs, instruments</text>
  <text x="80" y="420" class="text">(Kick, Snare, Toms, OH, Bass DI, Guitar, Vox)</text>

  <!-- Connections -->
  <!-- USB from Mac to XR18 -->
  <line x1="300" y1="190" x2="440" y2="190" class="usb" marker-end="url(#arrowBlue)" />
  <text x="280" y="160" class="label" fill="#1f78d1">USB (Audio 1–18)</text>

  <!-- Analog from sources to XR18 (routed up and in) -->
  <polyline points="340,410 340,250 440,250" class="analog" marker-end="url(#arrowGreen)" />
  <text x="250" y="245" class="label" fill="#2e7d32">Analog Inputs 1–12</text>

  <!-- Mains from XR18 to FOH/PA (slightly above text) -->
  <polyline points="740,150 820,150 900,120" class="analog" marker-end="url(#arrowGreen)" />
  <text x="800" y="100" class="label" fill="#2e7d32">Main L/R</text>

  <!-- Ultranet from XR18 to P16-D -->
  <polyline points="740,210 860,210 860,330 900,330" class="ultranet" marker-end="url(#arrowOrange)" />
  <text x="780" y="200" class="label" fill="#f57c00">Ultranet (16 ch)</text>

  <!-- Hub to P16-M fanout -->
  <polyline points="1050,380 1050,420 1080,420" class="ultranet" marker-end="url(#arrowOrange)" />
  <polyline points="1050,380 1050,486 1080,486" class="ultranet" marker-end="url(#arrowOrange)" />
  <polyline points="1050,380 1050,552 1080,552" class="ultranet" marker-end="url(#arrowOrange)" />
  <polyline points="1050,380 1050,618 1080,618" class="ultranet" marker-end="url(#arrowOrange)" />

  <!-- Legend -->
  <rect x="60" y="60" width="300" height="70" class="box" />
  <text x="75" y="88" class="label">Legend</text>
  <line x1="140" y1="80" x2="190" y2="80" class="usb"/>
  <text x="200" y="85" class="text">USB (Digital)</text>
  <line x1="140" y1="100" x2="190" y2="100" class="analog"/>
  <text x="200" y="105" class="text">Analog Audio</text>
  <line x1="140" y1="120" x2="190" y2="120" class="ultranet"/>
  <text x="200" y="125" class="text">Ultranet</text>

  <!-- Notes block -->
  <rect x="60" y="520" width="540" height="160" class="box" />
  <text x="80" y="550" class="title">Notes</text>
  <text x="80" y="575" class="text">• USB 13–18: Click, Cues, Tracks A–D</text>
  <text x="80" y="598" class="text">• P16 uses Ultranet (not standard Ethernet)</text>
  <text x="80" y="621" class="text">• Click/Cues: Main LR OFF (IEM only)</text>
  <text x="80" y="644" class="text">• P16‑M Line Out can feed IEM TX</text>

</svg>
