<?xml version="1.0" encoding="UTF-8" standalone="no"?>
<svg xmlns="http://www.w3.org/2000/svg" version="1.1" width="1200" height="720" viewBox="0 0 1200 720">
  <defs>
    <style type="text/css"><![CDATA[
      .box { fill: #f7f7f9; stroke: #2e3a46; stroke-width: 2; rx: 10; ry: 10; }
      .title { font: 700 18px sans-serif; fill: #1f2a33; }
      .text { font: 400 14px sans-serif; fill: #1f2a33; }
      .label { font: 600 13px sans-serif; fill: #1f2a33; }
      .usb { stroke: #1f78d1; stroke-width: 4; fill: none; }
      .analog { stroke: #2e7d32; stroke-width: 4; fill: none; }
      .ultranet { stroke: #f57c00; stroke-width: 4; fill: none; }
    ]]></style>
    <marker id="arrowBlue" markerWidth="12" markerHeight="12" refX="10" refY="6" orient="auto">
      <path d="M0,0 L12,6 L0,12 z" fill="#1f78d1" />
    </marker>
    <marker id="arrowGreen" markerWidth="12" markerHeight="12" refX="10" refY="6" orient="auto">
      <path d="M0,0 L12,6 L0,12 z" fill="#2e7d32" />
    </marker>
    <marker id="arrowOrange" markerWidth="12" markerHeight="12" refX="10" refY="6" orient="auto">
      <path d="M0,0 L12,6 L0,12 z" fill="#f57c00" />
    </marker>
  </defs>

  <!-- Title -->
  <text x="600" y="40" text-anchor="middle" class="title">Live System Overview — Mac + XR18 + Ultranet P16‑M</text>

  <!-- Mac Laptop -->
  <rect x="60" y="120" width="240" height="120" class="box" />
  <text x="80" y="150" class="title">Mac Laptop</text>
  <text x="80" y="175" class="text">Ableton Live + Ableset</text>
  <text x="80" y="198" class="text">Logic Pro (prep)</text>

  <!-- XR18 -->
  <rect x="360" y="110" width="280" height="140" class="box" />
  <text x="380" y="140" class="title">Behringer X Air XR18</text>
  <text x="380" y="165" class="text">FOH mixer + USB interface</text>
  <text x="380" y="188" class="text">Ultranet (RJ45) out</text>

  <!-- FOH/PA -->
  <rect x="780" y="80" width="260" height="90" class="box" />
  <text x="800" y="110" class="title">FOH / PA</text>
  <text x="800" y="135" class="text">Main L/R from XR18</text>

  <!-- Ultranet Hub -->
  <rect x="760" y="270" width="300" height="90" class="box" />
  <text x="780" y="300" class="title">Ultranet Hub (P16‑D)</text>
  <text x="780" y="325" class="text">Power + distribution to P16‑M</text>

  <!-- P16-M units -->
  <rect x="820" y="410" width="220" height="50" class="box" />
  <text x="830" y="440" class="label">P16‑M Drummer</text>

  <rect x="820" y="475" width="220" height="50" class="box" />
  <text x="830" y="505" class="label">P16‑M Bassist</text>

  <rect x="820" y="540" width="220" height="50" class="box" />
  <text x="830" y="570" class="label">P16‑M Guitarist</text>

  <rect x="820" y="605" width="220" height="50" class="box" />
  <text x="830" y="635" class="label">P16‑M Lead Vox / BGV</text>

  <!-- Example IEM transmitter from P16-M Line Out -->
  <rect x="1060" y="410" width="120" height="50" class="box" />
  <text x="1070" y="440" class="label">IEM TX (example)</text>
  <line x1="1040" y1="435" x2="1060" y2="435" class="analog" marker-end="url(#arrowGreen)" />
  <text x="1045" y="425" class="label" fill="#2e7d32">Line Out L/R</text>

  <!-- Analog sources block -->
  <rect x="60" y="300" width="260" height="120" class="box" />
  <text x="80" y="330" class="title">Live Inputs 1–12</text>
  <text x="80" y="355" class="text">Mics, DIs, instruments</text>
  <text x="80" y="378" class="text">(Kick, Snare, Toms, OH, Bass DI, Guitar, Vox)</text>

  <!-- Connections -->
  <!-- USB from Mac to XR18 -->
  <line x1="300" y1="180" x2="360" y2="180" class="usb" marker-end="url(#arrowBlue)" />
  <text x="260" y="160" class="label" fill="#1f78d1">USB (Audio 1–18)</text>

  <!-- Analog from sources to XR18 (routed up and in) -->
  <polyline points="320,360 320,220 360,220" class="analog" marker-end="url(#arrowGreen)" />
  <text x="250" y="215" class="label" fill="#2e7d32">Analog Inputs 1–12</text>

  <!-- Mains from XR18 to FOH/PA (slightly above text) -->
  <polyline points="640,140 710,140 780,120" class="analog" marker-end="url(#arrowGreen)" />
  <text x="690" y="112" class="label" fill="#2e7d32">Main L/R</text>

  <!-- Ultranet from XR18 to P16-D -->
  <line x1="640" y1="220" x2="760" y2="290" class="ultranet" marker-end="url(#arrowOrange)" />
  <text x="670" y="250" class="label" fill="#f57c00">Ultranet (16 ch)</text>

  <!-- Hub to P16-M fanout -->
  <line x1="910" y1="360" x2="910" y2="410" class="ultranet" marker-end="url(#arrowOrange)" />
  <line x1="910" y1="360" x2="910" y2="475" class="ultranet" marker-end="url(#arrowOrange)" />
  <line x1="910" y1="360" x2="910" y2="540" class="ultranet" marker-end="url(#arrowOrange)" />
  <line x1="910" y1="360" x2="910" y2="605" class="ultranet" marker-end="url(#arrowOrange)" />

  <!-- Legend -->
  <rect x="60" y="40" width="280" height="60" class="box" />
  <text x="75" y="65" class="label">Legend</text>
  <line x1="140" y1="60" x2="180" y2="60" class="usb"/>
  <text x="190" y="65" class="text">USB (Digital)</text>
  <line x1="140" y1="80" x2="180" y2="80" class="analog"/>
  <text x="190" y="85" class="text">Analog Audio</text>
  <line x1="140" y1="100" x2="180" y2="100" class="ultranet"/>
  <text x="190" y="105" class="text">Ultranet</text>

  <!-- Notes block -->
  <rect x="360" y="300" width="360" height="140" class="box" />
  <text x="380" y="330" class="title">Notes</text>
  <text x="380" y="355" class="text">• USB 13–18: Click, Cues, Tracks A–D</text>
  <text x="380" y="378" class="text">• P16 uses Ultranet (not standard Ethernet)</text>
  <text x="380" y="401" class="text">• Click/Cues: Main LR OFF (IEM only)</text>
  <text x="380" y="424" class="text">• P16‑M Line Out can feed IEM TX</text>

</svg>
